<mxfile host="Electron" modified="2024-07-08T15:17:31.401Z" agent="Mozilla/5.0 (X11; Linux x86_64) AppleWebKit/537.36 (KHTML, like Gecko) draw.io/24.5.3 Chrome/124.0.6367.207 Electron/30.0.6 Safari/537.36" etag="lQYII1knM_ogNrtwRvg2" version="24.5.3" type="device">
  <diagram name="Page-1" id="2YBvvXClWsGukQMizWep">
    <mxGraphModel dx="2196" dy="715" grid="1" gridSize="10" guides="1" tooltips="1" connect="1" arrows="1" fold="1" page="1" pageScale="1" pageWidth="850" pageHeight="1100" math="0" shadow="0">
      <root>
        <mxCell id="0" />
        <mxCell id="1" parent="0" />
        <mxCell id="aM9ryv3xv72pqoxQDRHE-1" value="Infra" style="shape=umlLifeline;perimeter=lifelinePerimeter;whiteSpace=wrap;html=1;container=0;dropTarget=0;collapsible=0;recursiveResize=0;outlineConnect=0;portConstraint=eastwest;newEdgeStyle={&quot;edgeStyle&quot;:&quot;elbowEdgeStyle&quot;,&quot;elbow&quot;:&quot;vertical&quot;,&quot;curved&quot;:0,&quot;rounded&quot;:0};" parent="1" vertex="1">
          <mxGeometry x="60" y="20" width="100" height="850" as="geometry" />
        </mxCell>
        <mxCell id="4DB23Ziay7zd34KaX_jn-1" value="" style="html=1;points=[[0,0,0,0,5],[0,1,0,0,-5],[1,0,0,0,5],[1,1,0,0,-5]];perimeter=orthogonalPerimeter;outlineConnect=0;targetShapes=umlLifeline;portConstraint=eastwest;newEdgeStyle={&quot;curved&quot;:0,&quot;rounded&quot;:0};" parent="aM9ryv3xv72pqoxQDRHE-1" vertex="1">
          <mxGeometry x="45" y="250" width="10" height="60" as="geometry" />
        </mxCell>
        <mxCell id="nKsV7kZIDSavuwrsFYIl-3" value="" style="html=1;points=[[0,0,0,0,5],[0,1,0,0,-5],[1,0,0,0,5],[1,1,0,0,-5]];perimeter=orthogonalPerimeter;outlineConnect=0;targetShapes=umlLifeline;portConstraint=eastwest;newEdgeStyle={&quot;curved&quot;:0,&quot;rounded&quot;:0};" parent="aM9ryv3xv72pqoxQDRHE-1" vertex="1">
          <mxGeometry x="45" y="340" width="10" height="70" as="geometry" />
        </mxCell>
        <mxCell id="4DB23Ziay7zd34KaX_jn-3" value="" style="html=1;points=[[0,0,0,0,5],[0,1,0,0,-5],[1,0,0,0,5],[1,1,0,0,-5]];perimeter=orthogonalPerimeter;outlineConnect=0;targetShapes=umlLifeline;portConstraint=eastwest;newEdgeStyle={&quot;curved&quot;:0,&quot;rounded&quot;:0};" parent="aM9ryv3xv72pqoxQDRHE-1" vertex="1">
          <mxGeometry x="45" y="530" width="10" height="150" as="geometry" />
        </mxCell>
        <mxCell id="nKsV7kZIDSavuwrsFYIl-9" value="" style="html=1;points=[[0,0,0,0,5],[0,1,0,0,-5],[1,0,0,0,5],[1,1,0,0,-5]];perimeter=orthogonalPerimeter;outlineConnect=0;targetShapes=umlLifeline;portConstraint=eastwest;newEdgeStyle={&quot;curved&quot;:0,&quot;rounded&quot;:0};" parent="aM9ryv3xv72pqoxQDRHE-1" vertex="1">
          <mxGeometry x="45" y="60" width="10" height="20" as="geometry" />
        </mxCell>
        <mxCell id="J79n-3A5QpS9S4hXwq8O-1" value="Restart DA" style="html=1;verticalAlign=bottom;endArrow=block;curved=0;rounded=0;exitX=1;exitY=1;exitDx=0;exitDy=-5;exitPerimeter=0;entryX=1;entryY=0;entryDx=0;entryDy=5;entryPerimeter=0;" edge="1" parent="aM9ryv3xv72pqoxQDRHE-1" source="4DB23Ziay7zd34KaX_jn-1" target="nKsV7kZIDSavuwrsFYIl-3">
          <mxGeometry x="0.2" width="80" relative="1" as="geometry">
            <mxPoint x="350" y="300" as="sourcePoint" />
            <mxPoint x="110" y="380" as="targetPoint" />
            <Array as="points">
              <mxPoint x="90" y="305" />
              <mxPoint x="90" y="345" />
            </Array>
            <mxPoint as="offset" />
          </mxGeometry>
        </mxCell>
        <mxCell id="aM9ryv3xv72pqoxQDRHE-5" value="Disk Registry" style="shape=umlLifeline;perimeter=lifelinePerimeter;whiteSpace=wrap;html=1;container=0;dropTarget=0;collapsible=0;recursiveResize=0;outlineConnect=0;portConstraint=eastwest;newEdgeStyle={&quot;edgeStyle&quot;:&quot;elbowEdgeStyle&quot;,&quot;elbow&quot;:&quot;vertical&quot;,&quot;curved&quot;:0,&quot;rounded&quot;:0};" parent="1" vertex="1">
          <mxGeometry x="280" y="20" width="100" height="850" as="geometry" />
        </mxCell>
        <mxCell id="J79n-3A5QpS9S4hXwq8O-16" value="" style="html=1;points=[[0,0,0,0,5],[0,1,0,0,-5],[1,0,0,0,5],[1,1,0,0,-5]];perimeter=orthogonalPerimeter;outlineConnect=0;targetShapes=umlLifeline;portConstraint=eastwest;newEdgeStyle={&quot;curved&quot;:0,&quot;rounded&quot;:0};" vertex="1" parent="aM9ryv3xv72pqoxQDRHE-5">
          <mxGeometry x="45" y="460" width="10" height="50" as="geometry" />
        </mxCell>
        <mxCell id="QcNDl5VP6jFW2hTs0bUm-1" value="Host" style="shape=umlLifeline;perimeter=lifelinePerimeter;whiteSpace=wrap;html=1;container=0;dropTarget=0;collapsible=0;recursiveResize=0;outlineConnect=0;portConstraint=eastwest;newEdgeStyle={&quot;edgeStyle&quot;:&quot;elbowEdgeStyle&quot;,&quot;elbow&quot;:&quot;vertical&quot;,&quot;curved&quot;:0,&quot;rounded&quot;:0};" parent="1" vertex="1">
          <mxGeometry x="500" y="20" width="100" height="850" as="geometry" />
        </mxCell>
        <mxCell id="QcNDl5VP6jFW2hTs0bUm-12" value="" style="html=1;points=[[0,0,0,0,5],[0,1,0,0,-5],[1,0,0,0,5],[1,1,0,0,-5]];perimeter=orthogonalPerimeter;outlineConnect=0;targetShapes=umlLifeline;portConstraint=eastwest;newEdgeStyle={&quot;curved&quot;:0,&quot;rounded&quot;:0};" parent="QcNDl5VP6jFW2hTs0bUm-1" vertex="1">
          <mxGeometry x="45" y="350" width="10" height="50" as="geometry" />
        </mxCell>
        <mxCell id="4DB23Ziay7zd34KaX_jn-6" value="" style="html=1;points=[[0,0,0,0,5],[0,1,0,0,-5],[1,0,0,0,5],[1,1,0,0,-5]];perimeter=orthogonalPerimeter;outlineConnect=0;targetShapes=umlLifeline;portConstraint=eastwest;newEdgeStyle={&quot;curved&quot;:0,&quot;rounded&quot;:0};" parent="QcNDl5VP6jFW2hTs0bUm-1" vertex="1">
          <mxGeometry x="45" y="530" width="10" height="80" as="geometry" />
        </mxCell>
        <mxCell id="GRGNdSaK8kCatk9fjgQE-4" value="Create NVME NS" style="html=1;align=left;spacingLeft=2;endArrow=block;rounded=0;edgeStyle=orthogonalEdgeStyle;curved=0;rounded=0;" parent="QcNDl5VP6jFW2hTs0bUm-1" target="GRGNdSaK8kCatk9fjgQE-3" edge="1">
          <mxGeometry relative="1" as="geometry">
            <mxPoint x="55" y="543" as="sourcePoint" />
            <Array as="points">
              <mxPoint x="85" y="573" />
            </Array>
          </mxGeometry>
        </mxCell>
        <mxCell id="4DB23Ziay7zd34KaX_jn-7" value="" style="html=1;verticalAlign=bottom;endArrow=open;dashed=1;endSize=8;curved=0;rounded=0;exitX=0;exitY=1;exitDx=0;exitDy=-5;exitPerimeter=0;" parent="QcNDl5VP6jFW2hTs0bUm-1" source="4DB23Ziay7zd34KaX_jn-6" edge="1">
          <mxGeometry x="-0.0465" y="-5" relative="1" as="geometry">
            <mxPoint x="45" y="635" as="sourcePoint" />
            <mxPoint x="-385" y="605" as="targetPoint" />
            <mxPoint as="offset" />
          </mxGeometry>
        </mxCell>
        <mxCell id="GRGNdSaK8kCatk9fjgQE-3" value="" style="html=1;points=[[0,0,0,0,5],[0,1,0,0,-5],[1,0,0,0,5],[1,1,0,0,-5]];perimeter=orthogonalPerimeter;outlineConnect=0;targetShapes=umlLifeline;portConstraint=eastwest;newEdgeStyle={&quot;curved&quot;:0,&quot;rounded&quot;:0};" parent="QcNDl5VP6jFW2hTs0bUm-1" vertex="1">
          <mxGeometry x="50" y="563" width="10" height="40" as="geometry" />
        </mxCell>
        <mxCell id="J79n-3A5QpS9S4hXwq8O-18" value="" style="html=1;points=[[0,0,0,0,5],[0,1,0,0,-5],[1,0,0,0,5],[1,1,0,0,-5]];perimeter=orthogonalPerimeter;outlineConnect=0;targetShapes=umlLifeline;portConstraint=eastwest;newEdgeStyle={&quot;curved&quot;:0,&quot;rounded&quot;:0};" vertex="1" parent="QcNDl5VP6jFW2hTs0bUm-1">
          <mxGeometry x="45" y="630" width="10" height="40" as="geometry" />
        </mxCell>
        <mxCell id="QcNDl5VP6jFW2hTs0bUm-9" value="Remove broken drive" style="html=1;verticalAlign=bottom;endArrow=block;curved=0;rounded=0;exitX=1;exitY=0;exitDx=0;exitDy=5;exitPerimeter=0;entryX=0;entryY=0;entryDx=0;entryDy=5;entryPerimeter=0;" parent="1" source="4DB23Ziay7zd34KaX_jn-1" target="4DB23Ziay7zd34KaX_jn-4" edge="1">
          <mxGeometry x="-0.4994" width="80" relative="1" as="geometry">
            <mxPoint x="110.25" y="290" as="sourcePoint" />
            <mxPoint x="545" y="275" as="targetPoint" />
            <mxPoint as="offset" />
          </mxGeometry>
        </mxCell>
        <mxCell id="QcNDl5VP6jFW2hTs0bUm-10" value="Install new drive" style="html=1;verticalAlign=bottom;endArrow=block;curved=0;rounded=0;exitX=1;exitY=0;exitDx=0;exitDy=5;exitPerimeter=0;entryX=0;entryY=0;entryDx=0;entryDy=5;entryPerimeter=0;" parent="1" source="4DB23Ziay7zd34KaX_jn-3" target="4DB23Ziay7zd34KaX_jn-6" edge="1">
          <mxGeometry x="-0.4994" width="80" relative="1" as="geometry">
            <mxPoint x="110.04999999999991" y="510" as="sourcePoint" />
            <mxPoint x="545" y="515" as="targetPoint" />
            <mxPoint as="offset" />
          </mxGeometry>
        </mxCell>
        <mxCell id="4DB23Ziay7zd34KaX_jn-2" value="" style="html=1;verticalAlign=bottom;endArrow=open;dashed=1;endSize=8;curved=0;rounded=0;exitX=0;exitY=1;exitDx=0;exitDy=-5;exitPerimeter=0;" parent="1" source="4DB23Ziay7zd34KaX_jn-4" target="4DB23Ziay7zd34KaX_jn-1" edge="1">
          <mxGeometry relative="1" as="geometry">
            <mxPoint x="545" y="305" as="sourcePoint" />
            <mxPoint x="140" y="340" as="targetPoint" />
          </mxGeometry>
        </mxCell>
        <mxCell id="QcNDl5VP6jFW2hTs0bUm-11" value="Restart DA using systemd" style="html=1;verticalAlign=bottom;endArrow=block;curved=0;rounded=0;entryX=0;entryY=0;entryDx=0;entryDy=5;entryPerimeter=0;" parent="1" source="nKsV7kZIDSavuwrsFYIl-3" target="QcNDl5VP6jFW2hTs0bUm-12" edge="1">
          <mxGeometry x="-0.0016" width="80" relative="1" as="geometry">
            <mxPoint x="110.09999999999991" y="340" as="sourcePoint" />
            <mxPoint x="325" y="340" as="targetPoint" />
            <mxPoint as="offset" />
          </mxGeometry>
        </mxCell>
        <mxCell id="QcNDl5VP6jFW2hTs0bUm-13" value="" style="html=1;verticalAlign=bottom;endArrow=open;dashed=1;endSize=8;curved=0;rounded=0;exitX=0;exitY=1;exitDx=0;exitDy=-5;exitPerimeter=0;" parent="1" source="QcNDl5VP6jFW2hTs0bUm-12" target="nKsV7kZIDSavuwrsFYIl-3" edge="1">
          <mxGeometry relative="1" as="geometry">
            <mxPoint x="280" y="550" as="sourcePoint" />
            <mxPoint x="110.09999999999991" y="575" as="targetPoint" />
          </mxGeometry>
        </mxCell>
        <mxCell id="4DB23Ziay7zd34KaX_jn-4" value="" style="html=1;points=[[0,0,0,0,5],[0,1,0,0,-5],[1,0,0,0,5],[1,1,0,0,-5]];perimeter=orthogonalPerimeter;outlineConnect=0;targetShapes=umlLifeline;portConstraint=eastwest;newEdgeStyle={&quot;curved&quot;:0,&quot;rounded&quot;:0};" parent="1" vertex="1">
          <mxGeometry x="545" y="270" width="10" height="40" as="geometry" />
        </mxCell>
        <mxCell id="nKsV7kZIDSavuwrsFYIl-7" value="" style="html=1;verticalAlign=bottom;endArrow=block;curved=0;rounded=0;exitX=1;exitY=0;exitDx=0;exitDy=5;exitPerimeter=0;entryX=0;entryY=0;entryDx=0;entryDy=5;entryPerimeter=0;" parent="1" source="nKsV7kZIDSavuwrsFYIl-9" target="nKsV7kZIDSavuwrsFYIl-38" edge="1">
          <mxGeometry relative="1" as="geometry">
            <mxPoint x="62.794999999999995" y="109.99999999999976" as="sourcePoint" />
            <mxPoint x="330" y="90" as="targetPoint" />
          </mxGeometry>
        </mxCell>
        <mxCell id="nKsV7kZIDSavuwrsFYIl-8" value="REMOVE_DEVICE" style="edgeLabel;html=1;align=center;verticalAlign=middle;resizable=0;points=[];" parent="nKsV7kZIDSavuwrsFYIl-7" vertex="1" connectable="0">
          <mxGeometry x="0.28" y="1" relative="1" as="geometry">
            <mxPoint x="-30" y="2" as="offset" />
          </mxGeometry>
        </mxCell>
        <mxCell id="nKsV7kZIDSavuwrsFYIl-39" value="" style="html=1;verticalAlign=bottom;endArrow=open;dashed=1;endSize=8;curved=0;rounded=0;exitX=0;exitY=1;exitDx=0;exitDy=-5;exitPerimeter=0;" parent="1" source="nKsV7kZIDSavuwrsFYIl-38" target="aM9ryv3xv72pqoxQDRHE-1" edge="1">
          <mxGeometry relative="1" as="geometry">
            <mxPoint x="220" y="160" as="sourcePoint" />
            <mxPoint x="140" y="160" as="targetPoint" />
          </mxGeometry>
        </mxCell>
        <mxCell id="nKsV7kZIDSavuwrsFYIl-40" value="" style="html=1;verticalAlign=bottom;endArrow=open;dashed=1;endSize=8;curved=0;rounded=0;entryX=1;entryY=1;entryDx=0;entryDy=-5;entryPerimeter=0;" parent="1" source="nKsV7kZIDSavuwrsFYIl-38" target="nKsV7kZIDSavuwrsFYIl-9" edge="1">
          <mxGeometry relative="1" as="geometry">
            <mxPoint x="345" y="120" as="sourcePoint" />
            <mxPoint x="130" y="120" as="targetPoint" />
          </mxGeometry>
        </mxCell>
        <mxCell id="nKsV7kZIDSavuwrsFYIl-42" value="&lt;div style=&quot;text-align: left;&quot;&gt;ChangeDeviceState&lt;/div&gt;" style="html=1;verticalAlign=bottom;endArrow=block;curved=0;rounded=0;entryX=1;entryY=0;entryDx=0;entryDy=5;entryPerimeter=0;fontSize=12;" parent="1" target="nKsV7kZIDSavuwrsFYIl-41" edge="1">
          <mxGeometry x="0.1" y="20" width="80" relative="1" as="geometry">
            <mxPoint x="335" y="90" as="sourcePoint" />
            <mxPoint x="345" y="130" as="targetPoint" />
            <Array as="points">
              <mxPoint x="370" y="90" />
              <mxPoint x="370" y="125" />
            </Array>
            <mxPoint as="offset" />
          </mxGeometry>
        </mxCell>
        <mxCell id="nKsV7kZIDSavuwrsFYIl-5" value="opt" style="shape=umlFrame;whiteSpace=wrap;html=1;pointerEvents=0;fontSize=8;width=40;height=20;" parent="1" vertex="1">
          <mxGeometry y="150" width="410" height="90" as="geometry" />
        </mxCell>
        <mxCell id="nKsV7kZIDSavuwrsFYIl-6" value="[if device is readable]" style="text;html=1;align=center;verticalAlign=middle;resizable=0;points=[];autosize=1;strokeColor=none;fillColor=none;fontSize=8;" parent="1" vertex="1">
          <mxGeometry x="30.002740937223663" y="150.0022222222222" width="100" height="20" as="geometry" />
        </mxCell>
        <mxCell id="nKsV7kZIDSavuwrsFYIl-38" value="" style="html=1;points=[[0,0,0,0,5],[0,1,0,0,-5],[1,0,0,0,5],[1,1,0,0,-5]];perimeter=orthogonalPerimeter;outlineConnect=0;targetShapes=umlLifeline;portConstraint=eastwest;newEdgeStyle={&quot;curved&quot;:0,&quot;rounded&quot;:0};" parent="1" vertex="1">
          <mxGeometry x="325" y="80" width="10" height="170" as="geometry" />
        </mxCell>
        <mxCell id="nKsV7kZIDSavuwrsFYIl-41" value="" style="html=1;points=[[0,0,0,0,5],[0,1,0,0,-5],[1,0,0,0,5],[1,1,0,0,-5]];perimeter=orthogonalPerimeter;outlineConnect=0;targetShapes=umlLifeline;portConstraint=eastwest;newEdgeStyle={&quot;curved&quot;:0,&quot;rounded&quot;:0};" parent="1" vertex="1">
          <mxGeometry x="330" y="120" width="10" height="20" as="geometry" />
        </mxCell>
        <mxCell id="nKsV7kZIDSavuwrsFYIl-46" value="&lt;span style=&quot;text-align: left; font-size: 12px;&quot;&gt;StartMigration&lt;/span&gt;" style="html=1;verticalAlign=bottom;endArrow=block;curved=0;rounded=0;entryX=1;entryY=0;entryDx=0;entryDy=5;entryPerimeter=0;fontSize=12;exitX=1;exitY=1;exitDx=0;exitDy=-5;exitPerimeter=0;" parent="1" source="nKsV7kZIDSavuwrsFYIl-41" target="nKsV7kZIDSavuwrsFYIl-45" edge="1">
          <mxGeometry x="0.3" width="80" relative="1" as="geometry">
            <mxPoint x="350" y="180" as="sourcePoint" />
            <mxPoint x="380" y="210" as="targetPoint" />
            <Array as="points">
              <mxPoint x="370" y="135" />
              <mxPoint x="370" y="175" />
            </Array>
            <mxPoint as="offset" />
          </mxGeometry>
        </mxCell>
        <mxCell id="nKsV7kZIDSavuwrsFYIl-45" value="" style="html=1;points=[[0,0,0,0,5],[0,1,0,0,-5],[1,0,0,0,5],[1,1,0,0,-5]];perimeter=orthogonalPerimeter;outlineConnect=0;targetShapes=umlLifeline;portConstraint=eastwest;newEdgeStyle={&quot;curved&quot;:0,&quot;rounded&quot;:0};" parent="1" vertex="1">
          <mxGeometry x="330" y="170" width="10" height="60" as="geometry" />
        </mxCell>
        <mxCell id="nKsV7kZIDSavuwrsFYIl-49" value="" style="group" parent="1" vertex="1" connectable="0">
          <mxGeometry x="50" y="160" width="280" height="95" as="geometry" />
        </mxCell>
        <mxCell id="nKsV7kZIDSavuwrsFYIl-50" value="loop" style="shape=umlFrame;whiteSpace=wrap;html=1;pointerEvents=0;fontSize=8;width=40;height=20;" parent="nKsV7kZIDSavuwrsFYIl-49" vertex="1">
          <mxGeometry x="19.31" y="5.1" width="260.69" height="74.9" as="geometry" />
        </mxCell>
        <mxCell id="nKsV7kZIDSavuwrsFYIl-51" value="[until disk migrated]" style="text;html=1;align=center;verticalAlign=middle;resizable=0;points=[];autosize=1;strokeColor=none;fillColor=none;fontSize=8;" parent="nKsV7kZIDSavuwrsFYIl-49" vertex="1">
          <mxGeometry x="62.931034482758605" y="10.191570881226047" width="90" height="20" as="geometry" />
        </mxCell>
        <mxCell id="nKsV7kZIDSavuwrsFYIl-52" value="" style="html=1;verticalAlign=bottom;endArrow=block;curved=0;rounded=0;" parent="nKsV7kZIDSavuwrsFYIl-49" edge="1">
          <mxGeometry width="80" relative="1" as="geometry">
            <mxPoint x="60" y="23.297931034482755" as="sourcePoint" />
            <mxPoint x="275" y="23.297931034482755" as="targetPoint" />
          </mxGeometry>
        </mxCell>
        <mxCell id="nKsV7kZIDSavuwrsFYIl-59" value="" style="html=1;verticalAlign=bottom;endArrow=block;curved=0;rounded=0;entryX=0;entryY=0;entryDx=0;entryDy=5;entryPerimeter=0;" parent="1" source="4DB23Ziay7zd34KaX_jn-3" target="J79n-3A5QpS9S4hXwq8O-18" edge="1">
          <mxGeometry width="80" relative="1" as="geometry">
            <mxPoint x="470" y="670" as="sourcePoint" />
            <mxPoint x="750" y="656" as="targetPoint" />
          </mxGeometry>
        </mxCell>
        <mxCell id="USN3qB_u7HplF12c-Tne-1" value="Restart DA using systemd" style="edgeLabel;html=1;align=center;verticalAlign=middle;resizable=0;points=[];" parent="nKsV7kZIDSavuwrsFYIl-59" vertex="1" connectable="0">
          <mxGeometry x="0.0052" y="-1" relative="1" as="geometry">
            <mxPoint y="-16" as="offset" />
          </mxGeometry>
        </mxCell>
        <mxCell id="nKsV7kZIDSavuwrsFYIl-60" value="" style="html=1;verticalAlign=bottom;endArrow=open;dashed=1;endSize=8;curved=0;rounded=0;exitX=0;exitY=1;exitDx=0;exitDy=-5;exitPerimeter=0;" parent="1" source="J79n-3A5QpS9S4hXwq8O-18" target="4DB23Ziay7zd34KaX_jn-3" edge="1">
          <mxGeometry relative="1" as="geometry">
            <mxPoint x="750" y="676" as="sourcePoint" />
            <mxPoint x="610" y="620" as="targetPoint" />
          </mxGeometry>
        </mxCell>
        <mxCell id="nKsV7kZIDSavuwrsFYIl-61" value="Register" style="html=1;verticalAlign=bottom;endArrow=block;curved=0;rounded=0;entryX=1;entryY=0;entryDx=0;entryDy=5;entryPerimeter=0;" parent="1" source="nKsV7kZIDSavuwrsFYIl-56" target="nKsV7kZIDSavuwrsFYIl-63" edge="1">
          <mxGeometry relative="1" as="geometry">
            <mxPoint x="777.5" y="790" as="sourcePoint" />
            <mxPoint x="332.5" y="790" as="targetPoint" />
          </mxGeometry>
        </mxCell>
        <mxCell id="nKsV7kZIDSavuwrsFYIl-62" value="" style="html=1;verticalAlign=bottom;labelBackgroundColor=none;endArrow=block;endFill=1;dashed=1;rounded=0;exitX=1;exitY=1;exitDx=0;exitDy=-5;exitPerimeter=0;" parent="1" source="nKsV7kZIDSavuwrsFYIl-63" edge="1">
          <mxGeometry width="160" relative="1" as="geometry">
            <mxPoint x="332.5" y="820" as="sourcePoint" />
            <mxPoint x="754.5" y="810" as="targetPoint" />
          </mxGeometry>
        </mxCell>
        <mxCell id="OSk1BNfSI-17lQ2SjyxJ-7" value="" style="html=1;verticalAlign=bottom;endArrow=block;curved=0;rounded=0;" parent="1" edge="1">
          <mxGeometry relative="1" as="geometry">
            <mxPoint x="109.73666666666662" y="749.995" as="sourcePoint" />
            <mxPoint x="329.57" y="749.995" as="targetPoint" />
          </mxGeometry>
        </mxCell>
        <mxCell id="OSk1BNfSI-17lQ2SjyxJ-8" value="ADD_DEVICE" style="edgeLabel;html=1;align=center;verticalAlign=middle;resizable=0;points=[];" parent="OSk1BNfSI-17lQ2SjyxJ-7" vertex="1" connectable="0">
          <mxGeometry x="0.28" y="1" relative="1" as="geometry">
            <mxPoint x="-30" y="2" as="offset" />
          </mxGeometry>
        </mxCell>
        <mxCell id="OSk1BNfSI-17lQ2SjyxJ-9" value="" style="html=1;verticalAlign=bottom;endArrow=open;dashed=1;endSize=8;curved=0;rounded=0;" parent="1" edge="1">
          <mxGeometry relative="1" as="geometry">
            <mxPoint x="329.40999999999997" y="830" as="sourcePoint" />
            <mxPoint x="109.91" y="830" as="targetPoint" />
          </mxGeometry>
        </mxCell>
        <mxCell id="nKsV7kZIDSavuwrsFYIl-63" value="" style="html=1;points=[[0,0,0,0,5],[0,1,0,0,-5],[1,0,0,0,5],[1,1,0,0,-5]];perimeter=orthogonalPerimeter;outlineConnect=0;targetShapes=umlLifeline;portConstraint=eastwest;newEdgeStyle={&quot;curved&quot;:0,&quot;rounded&quot;:0};" parent="1" vertex="1">
          <mxGeometry x="325" y="765" width="10" height="50" as="geometry" />
        </mxCell>
        <mxCell id="USN3qB_u7HplF12c-Tne-2" value="Disk broke" style="html=1;verticalAlign=bottom;startArrow=oval;startFill=1;endArrow=block;startSize=8;curved=0;rounded=0;" parent="1" target="aM9ryv3xv72pqoxQDRHE-1" edge="1">
          <mxGeometry x="-0.4064" y="-4" width="60" relative="1" as="geometry">
            <mxPoint x="-32" y="66" as="sourcePoint" />
            <mxPoint x="28" y="66" as="targetPoint" />
            <mxPoint as="offset" />
          </mxGeometry>
        </mxCell>
        <mxCell id="J79n-3A5QpS9S4hXwq8O-2" value="Disk Agent" style="shape=umlLifeline;perimeter=lifelinePerimeter;whiteSpace=wrap;html=1;container=0;dropTarget=0;collapsible=0;recursiveResize=0;outlineConnect=0;portConstraint=eastwest;newEdgeStyle={&quot;edgeStyle&quot;:&quot;elbowEdgeStyle&quot;,&quot;elbow&quot;:&quot;vertical&quot;,&quot;curved&quot;:0,&quot;rounded&quot;:0};" vertex="1" parent="1">
          <mxGeometry x="690" y="20" width="130" height="850" as="geometry" />
        </mxCell>
        <mxCell id="J79n-3A5QpS9S4hXwq8O-10" value="" style="html=1;points=[[0,0,0,0,5],[0,1,0,0,-5],[1,0,0,0,5],[1,1,0,0,-5]];perimeter=orthogonalPerimeter;outlineConnect=0;targetShapes=umlLifeline;portConstraint=eastwest;newEdgeStyle={&quot;curved&quot;:0,&quot;rounded&quot;:0};" vertex="1" parent="J79n-3A5QpS9S4hXwq8O-2">
          <mxGeometry x="60" y="350" width="10" height="30" as="geometry" />
        </mxCell>
        <mxCell id="nKsV7kZIDSavuwrsFYIl-55" value="" style="html=1;points=[[0,0,0,0,5],[0,1,0,0,-5],[1,0,0,0,5],[1,1,0,0,-5]];perimeter=orthogonalPerimeter;outlineConnect=0;targetShapes=umlLifeline;portConstraint=eastwest;newEdgeStyle={&quot;curved&quot;:0,&quot;rounded&quot;:0};" parent="J79n-3A5QpS9S4hXwq8O-2" vertex="1">
          <mxGeometry x="60" y="635" width="10" height="30" as="geometry" />
        </mxCell>
        <mxCell id="J79n-3A5QpS9S4hXwq8O-12" value="" style="html=1;points=[[0,0,0,0,5],[0,1,0,0,-5],[1,0,0,0,5],[1,1,0,0,-5]];perimeter=orthogonalPerimeter;outlineConnect=0;targetShapes=umlLifeline;portConstraint=eastwest;newEdgeStyle={&quot;curved&quot;:0,&quot;rounded&quot;:0};" vertex="1" parent="J79n-3A5QpS9S4hXwq8O-2">
          <mxGeometry x="60" y="420" width="10" height="50" as="geometry" />
        </mxCell>
        <mxCell id="J79n-3A5QpS9S4hXwq8O-17" value="Discovery" style="html=1;align=left;spacingLeft=2;endArrow=block;rounded=0;edgeStyle=orthogonalEdgeStyle;curved=0;rounded=0;" edge="1" parent="J79n-3A5QpS9S4hXwq8O-2" source="J79n-3A5QpS9S4hXwq8O-10" target="J79n-3A5QpS9S4hXwq8O-12">
          <mxGeometry x="0.0522" y="-15" relative="1" as="geometry">
            <mxPoint x="70" y="380" as="sourcePoint" />
            <Array as="points">
              <mxPoint x="95" y="370" />
              <mxPoint x="95" y="425" />
            </Array>
            <mxPoint as="offset" />
            <mxPoint x="70" y="425" as="targetPoint" />
          </mxGeometry>
        </mxCell>
        <mxCell id="nKsV7kZIDSavuwrsFYIl-56" value="" style="html=1;points=[[0,0,0,0,5],[0,1,0,0,-5],[1,0,0,0,5],[1,1,0,0,-5]];perimeter=orthogonalPerimeter;outlineConnect=0;targetShapes=umlLifeline;portConstraint=eastwest;newEdgeStyle={&quot;curved&quot;:0,&quot;rounded&quot;:0};" parent="1" vertex="1">
          <mxGeometry x="750" y="711" width="10" height="60" as="geometry" />
        </mxCell>
        <mxCell id="nKsV7kZIDSavuwrsFYIl-57" value="Discovery" style="html=1;align=left;spacingLeft=2;endArrow=block;rounded=0;edgeStyle=orthogonalEdgeStyle;curved=0;rounded=0;exitX=1;exitY=1;exitDx=0;exitDy=-5;exitPerimeter=0;" parent="1" target="nKsV7kZIDSavuwrsFYIl-56" edge="1">
          <mxGeometry x="0.0522" y="-15" relative="1" as="geometry">
            <mxPoint x="760" y="676" as="sourcePoint" />
            <Array as="points">
              <mxPoint x="785" y="676" />
              <mxPoint x="785" y="721" />
            </Array>
            <mxPoint as="offset" />
          </mxGeometry>
        </mxCell>
        <mxCell id="J79n-3A5QpS9S4hXwq8O-7" value="" style="html=1;verticalAlign=bottom;endArrow=block;curved=0;rounded=0;entryX=0;entryY=0;entryDx=0;entryDy=5;entryPerimeter=0;" edge="1" parent="1" target="J79n-3A5QpS9S4hXwq8O-10" source="QcNDl5VP6jFW2hTs0bUm-12">
          <mxGeometry width="80" relative="1" as="geometry">
            <mxPoint x="115" y="375" as="sourcePoint" />
            <mxPoint x="550" y="389" as="targetPoint" />
          </mxGeometry>
        </mxCell>
        <mxCell id="J79n-3A5QpS9S4hXwq8O-8" value="Restart DA" style="edgeLabel;html=1;align=center;verticalAlign=middle;resizable=0;points=[];" vertex="1" connectable="0" parent="J79n-3A5QpS9S4hXwq8O-7">
          <mxGeometry x="0.0052" y="-1" relative="1" as="geometry">
            <mxPoint y="-16" as="offset" />
          </mxGeometry>
        </mxCell>
        <mxCell id="J79n-3A5QpS9S4hXwq8O-9" value="" style="html=1;verticalAlign=bottom;endArrow=open;dashed=1;endSize=8;curved=0;rounded=0;exitX=0;exitY=1;exitDx=0;exitDy=-5;exitPerimeter=0;" edge="1" parent="1" source="J79n-3A5QpS9S4hXwq8O-10" target="QcNDl5VP6jFW2hTs0bUm-12">
          <mxGeometry relative="1" as="geometry">
            <mxPoint x="690" y="339" as="sourcePoint" />
            <mxPoint x="115" y="395" as="targetPoint" />
          </mxGeometry>
        </mxCell>
        <mxCell id="J79n-3A5QpS9S4hXwq8O-11" value="" style="group" vertex="1" connectable="0" parent="1">
          <mxGeometry x="89.31" y="710" width="260.69" height="140" as="geometry" />
        </mxCell>
        <mxCell id="OSk1BNfSI-17lQ2SjyxJ-5" value="loop" style="shape=umlFrame;whiteSpace=wrap;html=1;pointerEvents=0;fontSize=8;width=40;height=20;" parent="J79n-3A5QpS9S4hXwq8O-11" vertex="1">
          <mxGeometry width="260.69" height="140" as="geometry" />
        </mxCell>
        <mxCell id="OSk1BNfSI-17lQ2SjyxJ-6" value="[until device registered in DR]" style="text;html=1;align=center;verticalAlign=middle;resizable=0;points=[];autosize=1;strokeColor=none;fillColor=none;fontSize=8;" parent="J79n-3A5QpS9S4hXwq8O-11" vertex="1">
          <mxGeometry x="21.954367816091917" y="10" width="130" height="20" as="geometry" />
        </mxCell>
        <mxCell id="J79n-3A5QpS9S4hXwq8O-14" value="Register" style="html=1;verticalAlign=bottom;endArrow=block;curved=0;rounded=0;entryX=1;entryY=0;entryDx=0;entryDy=5;entryPerimeter=0;exitX=0;exitY=1;exitDx=0;exitDy=-5;exitPerimeter=0;" edge="1" parent="1" target="J79n-3A5QpS9S4hXwq8O-16" source="J79n-3A5QpS9S4hXwq8O-12">
          <mxGeometry relative="1" as="geometry">
            <mxPoint x="750" y="465" as="sourcePoint" />
            <mxPoint x="332.5" y="485" as="targetPoint" />
          </mxGeometry>
        </mxCell>
        <mxCell id="J79n-3A5QpS9S4hXwq8O-15" value="" style="html=1;verticalAlign=bottom;labelBackgroundColor=none;endArrow=block;endFill=1;dashed=1;rounded=0;exitX=1;exitY=1;exitDx=0;exitDy=-5;exitPerimeter=0;" edge="1" parent="1" source="J79n-3A5QpS9S4hXwq8O-16" target="J79n-3A5QpS9S4hXwq8O-2">
          <mxGeometry width="160" relative="1" as="geometry">
            <mxPoint x="332.5" y="515" as="sourcePoint" />
            <mxPoint x="754.5" y="505" as="targetPoint" />
          </mxGeometry>
        </mxCell>
        <mxCell id="J79n-3A5QpS9S4hXwq8O-19" value="" style="html=1;verticalAlign=bottom;endArrow=block;curved=0;rounded=0;entryX=0;entryY=0;entryDx=0;entryDy=5;entryPerimeter=0;" edge="1" parent="1" source="J79n-3A5QpS9S4hXwq8O-18" target="nKsV7kZIDSavuwrsFYIl-55">
          <mxGeometry width="80" relative="1" as="geometry">
            <mxPoint x="555" y="660" as="sourcePoint" />
            <mxPoint x="750" y="660" as="targetPoint" />
          </mxGeometry>
        </mxCell>
        <mxCell id="J79n-3A5QpS9S4hXwq8O-20" value="Restart DA" style="edgeLabel;html=1;align=center;verticalAlign=middle;resizable=0;points=[];" vertex="1" connectable="0" parent="J79n-3A5QpS9S4hXwq8O-19">
          <mxGeometry x="0.0052" y="-1" relative="1" as="geometry">
            <mxPoint y="-16" as="offset" />
          </mxGeometry>
        </mxCell>
        <mxCell id="J79n-3A5QpS9S4hXwq8O-21" value="" style="html=1;verticalAlign=bottom;endArrow=open;dashed=1;endSize=8;curved=0;rounded=0;exitX=0;exitY=1;exitDx=0;exitDy=-5;exitPerimeter=0;" edge="1" parent="1" source="nKsV7kZIDSavuwrsFYIl-55" target="J79n-3A5QpS9S4hXwq8O-18">
          <mxGeometry relative="1" as="geometry">
            <mxPoint x="750" y="680" as="sourcePoint" />
            <mxPoint x="555" y="680" as="targetPoint" />
          </mxGeometry>
        </mxCell>
      </root>
    </mxGraphModel>
  </diagram>
</mxfile>
